<svg width="52" height="62" viewBox="0 0 52 62" fill="none" xmlns="http://www.w3.org/2000/svg">
<path d="M1 11.7229L7.01604 15.2169M1 11.7229L19.984 10.8795L25.5989 14.253M1 11.7229V51.6024L7.01604 54.8554M1 11.7229L3.40642 19.0723L7.01604 15.2169M7.01604 15.2169L25.5989 14.253M7.01604 15.2169V54.8554M25.5989 14.253V30.2771M7.01604 54.8554L18.7807 54.253M18.7807 54.253V35.3374L20.6524 33.2892M18.7807 54.253V57.506L19.0481 57.988L19.4492 58.4699L19.984 58.9518L20.7861 59.4337L21.7219 59.7952L23.1925 60.2771L25.0642 60.759L26.1337 60.8795L27.2032 61H32.1497L33.2193 60.8795L34.1551 60.759L35.2246 60.5181L36.2941 60.2771L37.0963 60.0361L37.631 59.7952L38.4332 59.4337L39.1016 58.9518L39.6364 58.4699L40.1711 57.988M20.6524 33.2892L21.8556 33.8916L23.0588 34.494L24.3957 34.9759C24.6631 35.0562 25.3316 35.2169 25.8663 35.2169C26.4011 35.2169 30.902 35.2169 33.0856 35.2169C33.0856 35.2169 33.3262 35.1928 34.2888 35.0964C35.2513 35 36.1159 34.6546 36.4278 34.494L37.4973 34.1325L38.4332 33.6506L38.9679 33.2892M20.6524 33.2892V32.5663L21.0535 31.9639L21.5882 31.4819L22.2567 31.1205L23.0588 30.759L23.861 30.5181L24.7968 30.3976M38.9679 33.2892L40.4385 35.3374V37.0241M38.9679 33.2892V32.9277L38.7005 32.5663L38.1658 31.9639L37.4973 31.4819L36.6952 31.1205L35.492 30.759M40.1711 57.988L40.4385 57.506V54.253V50.759M40.1711 57.988H45.385L47.123 57.747L48.5936 57.506C48.9501 57.4257 49.7701 57.241 50.1979 57.1446C50.6257 57.0482 50.9109 56.7831 51 56.6627V49.3133M24.7968 30.3976L25.4652 30.2771M24.7968 30.3976L25.5989 30.2771M25.5989 30.2771H26.4011H33.0856L34.2888 30.3976L35.492 30.759M35.492 30.759V28.5904L33.754 25.2169V19.7952L33.988 19.2831M45.6524 1.84337V5.93976L45.3516 6.03012M45.6524 1.84337L44.4492 2.3253H40.4385L38.9679 1.84337M45.6524 1.84337L44.4492 1H40.4385L38.9679 1.84337M38.9679 1.84337V5.93976L39.2353 6.00548M39.2353 6.00548L40.4385 6.3012H44.4492L45.0508 6.12048L45.3516 6.03012M39.2353 6.00548V9.91566L38.9679 10.8795L38.4332 12.4458L37.4973 13.8916L36.6952 14.7349L35.492 16.1807L34.6898 17.747L34.2219 18.7711M45.3516 6.03012V9.91566L45.6524 10.8795L46.3209 12.4458L47.2567 13.8916L47.9251 14.7349L48.9947 16.1807L49.7968 17.747L50.131 18.7711M51 35.5783V34.1325L48.9947 30.759V28.5904L50.4652 25.2169V19.7952L50.2981 19.2831M51 35.5783L50.1979 35.9398L49.5294 36.3012L48.7273 36.5422L47.5241 36.7831L46.3209 37.0241H40.4385M51 35.5783V49.3133M40.4385 37.0241V50.759M40.4385 50.759H46.3209L47.5241 50.5181L48.7273 50.2771L49.5294 50.0361L50.1979 49.7952L51 49.3133M34.2219 18.7711L35.3583 18.2289L35.6257 18.1084L36.0267 17.988L36.5615 17.8675L37.0963 17.747L37.7647 17.6265L38.5668 17.506H45.5187L46.3209 17.6265L46.9893 17.747L47.9251 17.988L48.3262 18.1084C48.5401 18.2048 49.6185 18.5904 50.131 18.7711M34.2219 18.7711L33.988 19.2831M50.131 18.7711L50.2981 19.2831M33.988 19.2831L35.3583 20.2771L35.6257 20.3976C35.9465 20.494 36.3832 20.5984 36.5615 20.6386L37.0963 20.759L37.7647 20.8795L38.5668 21H45.5187L46.3209 20.8795L46.9893 20.759L47.9251 20.5181L48.3262 20.3976L50.2981 19.2831" stroke="black" stroke-opacity="0.7" stroke-width="2"/>
</svg>
