<svg width="52" height="52" viewBox="0 0 52 52" fill="none" xmlns="http://www.w3.org/2000/svg">
<path d="M1 20.7304V3.32843V2.83824L1.56818 2.34804L2.27841 1.61275L2.70455 1.2451L3.41477 1H35.517L36.2273 1.2451L36.7955 1.61275L37.2216 1.98039L37.5057 2.34804L37.7898 2.83824L37.9318 3.20588V20.7304M1 20.7304V48.549L1.42614 49.5294L1.85227 50.0196L2.27841 50.3873L2.84659 50.7549L3.41477 51H35.8011L36.3693 50.7549L36.9375 50.3873L37.5057 50.0196L37.9318 49.5294V20.7304M1 20.7304L2.27841 21.4657H6.68182M37.9318 20.7304L35.8011 21.4657H11.6534M6.68182 6.51471V7.86275M6.68182 6.51471L7.10795 6.7598L7.67614 6.88235H10.6591L11.2273 6.7598L11.6534 6.51471M6.68182 6.51471L7.10795 6.02451L7.67614 5.90196H10.6591L11.2273 6.02451L11.6534 6.51471M6.68182 21.4657H11.6534M6.68182 21.4657V16.3186M11.6534 6.51471V7.86275M11.6534 21.4657V16.4412M6.68182 7.86275L7.10795 8.10784L7.67614 8.23039H10.6591L11.2273 8.10784L11.6534 7.86275M6.68182 7.86275V14.6642M11.6534 7.86275V14.6642M6.68182 14.6642L7.10795 14.9706L7.67614 15.0931H10.6591L11.2273 14.9706L11.6534 14.6642M6.68182 14.6642V16.3186M11.6534 14.6642V16.4412M6.68182 16.3186L7.10795 16.5637L7.67614 16.8088H10.6591L11.2273 16.5637L11.6534 16.4412M13.642 6.51471V7.86275M13.642 6.51471L14.0682 6.7598L14.6364 6.88235H17.6193L18.1875 6.7598L18.6136 6.51471M13.642 6.51471L14.0682 6.02451L14.6364 5.90196H17.6193L18.1875 6.02451L18.6136 6.51471M13.642 7.86275L14.0682 8.10784L14.6364 8.23039H17.6193L18.1875 8.10784L18.6136 7.86275M13.642 7.86275V14.6642M18.6136 6.51471V7.86275M18.6136 7.86275V14.6642M13.642 14.6642L14.0682 14.9706L14.6364 15.0931H17.6193L18.1875 14.9706L18.6136 14.6642M13.642 14.6642V16.3186M18.6136 14.6642V16.4412M13.642 16.3186V21.4657H18.6136V16.4412M13.642 16.3186L14.0682 16.5637L14.6364 16.8088H17.6193L18.1875 16.5637L18.6136 16.4412M20.6023 6.51471V7.86275M20.6023 6.51471L21.0284 6.7598L21.5966 6.88235H24.5795L25.1477 6.7598L25.5739 6.51471M20.6023 6.51471L21.0284 6.02451L21.5966 5.90196H24.5795L25.1477 6.02451L25.5739 6.51471M20.6023 7.86275L21.0284 8.10784L21.5966 8.23039H24.5795L25.1477 8.10784L25.5739 7.86275M20.6023 7.86275V14.6642M25.5739 6.51471V7.86275M25.5739 7.86275V14.6642M20.6023 14.6642L21.0284 14.9706L21.5966 15.0931H24.5795L25.1477 14.9706L25.5739 14.6642M20.6023 14.6642V16.3186M25.5739 14.6642V16.4412M20.6023 16.3186V21.4657H25.5739V16.4412M20.6023 16.3186L21.0284 16.5637L21.5966 16.8088H24.5795L25.1477 16.5637L25.5739 16.4412M27.8466 6.51471V7.86275M27.8466 6.51471L28.2727 6.7598L28.8409 6.88235H31.8239L32.392 6.7598L32.8182 6.51471M27.8466 6.51471L28.2727 6.02451L28.8409 5.90196H31.8239L32.392 6.02451L32.8182 6.51471M27.8466 7.86275L28.2727 8.10784L28.8409 8.23039H31.8239L32.392 8.10784L32.8182 7.86275M27.8466 7.86275V14.6642M32.8182 6.51471V7.86275M32.8182 7.86275V14.6642M27.8466 14.6642L28.2727 14.9706L28.8409 15.0931H31.8239L32.392 14.9706L32.8182 14.6642M27.8466 14.6642V16.3186M32.8182 14.6642V16.4412M27.8466 16.3186V21.4657H32.8182V16.4412M27.8466 16.3186L28.2727 16.5637L28.8409 16.8088H31.8239L32.392 16.5637L32.8182 16.4412M44.75 41.8088L45.7443 41.5637L46.4545 41.3186H49.4375L50.2898 41.5637L51 41.8088M44.75 41.8088V33.4755M44.75 41.8088V43.2794L45.7443 44.0147L46.4545 44.3824H49.4375L50.2898 44.1373L51 43.2794V41.8088M51 41.8088V33.4755M44.75 33.4755V9.33333V9.08824L45.4602 8.59804L46.3125 8.23039H49.7216L50.4318 8.59804L50.858 9.08824L51 9.33333V33.4755M44.75 33.4755L45.4602 32.9853L46.1705 32.7402H49.4375L50.1477 32.9853L51 33.4755M10.233 30.7794V37.5196L10.8011 38.1324H11.6534H26.8523H27.8466L28.4148 37.5196V30.7794V30.2892L27.8466 29.4314H26.8523H10.517L10.233 29.9216V30.7794Z" stroke="black" stroke-opacity="0.7" stroke-width="2"/>
</svg>
