<svg width="33" height="62" viewBox="0 0 33 62" fill="none" xmlns="http://www.w3.org/2000/svg">
<path d="M9.92448 8.41419L11.1831 1H13.8146L14.8444 8.41419M9.92448 8.41419H7.63616L6.83524 9.37529V11.5721M9.92448 8.41419H14.8444M6.83524 11.5721H6.49199L5.34783 13.0824V15.5538L5.80549 15.9657H6.83524M6.83524 11.5721H17.9336M17.9336 11.5721H18.2769L19.5355 13.0824V15.5538L19.1922 15.9657H17.9336M17.9336 11.5721V9.37529L17.0183 8.41419H14.8444M6.83524 15.9657V19.1236L6.49199 20.4966L5.34783 24.0664L3.51716 27.6362L1.45767 30.7941L1 31.3433V34.913M6.83524 15.9657H17.9336M23.9977 60.5881H3.51716L1.45767 59.2151L1 58.1167V44.6613M23.9977 60.5881L23.54 59.9016L23.1968 59.2151V46.9954M23.9977 60.5881C24.6384 60.9176 33.4943 60.7712 37.8421 60.6568M23.54 30.7941L23.1968 32.4416V34.913M23.54 30.7941L24.2265 29.2838L25.0275 28.0481L26.6293 26.4005L26.1716 24.0664V22.4188V19.1236L26.6293 17.3387L27.4302 15.5538L28.1167 13.9062M23.54 30.7941L21.8238 27.6362L19.8787 24.0664L18.3913 20.4966L17.9336 19.1236V15.9657M33.151 13.6316H28.2311L28.1167 13.9062M33.151 13.6316L34.1808 15.5538L34.7529 17.3387L35.0961 19.1236V22.4188V24.0664L34.7529 26.4005L36.5835 28.0481L37.4989 29.2838L38.4142 32.4416L38.8719 35.0503M33.151 13.6316L33.9519 13.0824V9.78719L33.151 9.10069M38.8719 35.0503V36.6979H44.8215H37.4989L37.27 36.9725L37.0412 37.2471V39.1693L37.27 39.5812L37.4989 39.9931H38.8719M38.8719 35.0503L39.2151 33.9519L39.7872 33.1281L40.4737 32.167L41.389 31.4806L41.7323 31.3433M48.254 36.6979H48.8261M48.8261 36.6979H50.1991L50.5423 36.9725L51 37.2471V39.1693L50.6567 39.5812L50.1991 39.9931H48.8261M48.8261 36.6979V35.0503L48.254 33.9519L47.6819 33.1281L46.881 32.167L45.8513 31.4806M45.8513 31.4806L45.0503 31.206H43.5629M45.8513 31.4806V34.7757M41.7323 31.3433L42.0755 31.206H43.5629M41.7323 31.3433V34.7757M43.5629 31.206V33.9519M28.1167 13.9062L27.4302 12.8078V9.78719L28.1167 9.10069H28.2311M33.151 9.10069H28.2311M33.151 9.10069V7.45309L32.5789 6.76659H28.9176L28.2311 7.45309V9.10069M38.8719 39.9931H48.8261M38.8719 39.9931L38.7934 40.8169M48.8261 39.9931L50.8856 59.9016L50.6567 60.3135L49.8558 61H38.1854L37.8421 60.6568M38.0742 48.3684L37.0412 59.2151L37.27 59.9016L37.4989 60.3135L37.8421 60.6568M38.0742 48.3684L40.2449 46.9954L41.7323 46.3089L42.1899 46.1716L42.5332 46.0343H45.2792L45.9657 46.1716L46.6522 46.3089L47.9108 46.9954L49.627 48.3684M38.0742 48.3684L38.5057 43.8375M1 34.913H4.54691L4.77574 33.9519L5.34783 32.4416L6.60641 30.7941L8.43707 29.2838L10.1533 28.3227H14.2723L16.4462 29.5584L17.9336 30.7941L19.1922 32.4416L19.8787 33.9519L20.3364 34.913H23.1968M1 34.913V44.6613M23.1968 34.913V40.8169M23.1968 44.6613H20.3364L19.8787 46.0343L19.1922 47.8192L17.9336 49.6041L16.4462 50.9771L14.2723 52.0755H10.1533L8.43707 51.2517L6.60641 49.6041L5.34783 47.8192L4.54691 46.0343L4.31808 44.6613H1M23.1968 44.6613V46.9954M23.1968 44.6613V43.8375M23.1968 40.8169H26.8581V38.2082L27.087 37.1098L28.0023 35.4622L28.9176 34.3638L29.6041 34.0892H31.8924L32.6934 34.3638L33.6087 35.4622L34.4096 37.1098L34.6384 38.2082V40.8169H38.7934M23.1968 40.8169V43.8375M38.7934 40.8169L38.5057 43.8375M38.5057 43.8375H34.6384M36.3547 46.9954H34.6384V49.6041C34.2723 50.4828 33.8757 51.1602 33.7231 51.389L33.0366 52.0755L32.2357 52.762H29.6041L28.9176 52.4874L28.0023 51.8009L27.087 50.4279L26.8581 49.6041V46.9954H23.1968M23.1968 43.8375H26.8581M31.5492 39.1693L32.1213 40.1304L32.2357 40.8169L31.8924 41.778L31.5492 43.8375V49.6041C31.4348 49.7872 31.1373 50.1533 30.8627 50.1533C30.5881 50.1533 29.299 47.0412 28.6888 45.4851V41.778L28.9176 39.9931L29.6041 39.1693L29.9474 38.8947M31.5492 39.1693L31.2059 38.8947L30.8627 38.6201M31.5492 39.1693L32.2357 37.9336M30.8627 38.6201H30.2906L29.9474 38.8947M30.8627 38.6201L31.2059 36.6979M29.9474 38.8947L29.6041 36.9725M10.7254 35.0503H9.3524L8.20824 35.3249L6.94966 36.6979L5.91991 38.6201V42.7391L6.26316 43.8375L7.29291 45.0732L8.43707 46.3089L9.3524 46.7208H15.4165L16.6751 45.897L17.476 45.0732L18.3913 43.8375L18.9634 42.7391V39.032C18.8871 38.6659 18.5744 37.6865 17.9336 36.6979L16.4462 35.4622L15.4165 35.0503H14.5011M10.7254 35.0503L9.81007 32.4416M10.7254 35.0503H12.4416M12.4416 35.0503V31.4806M12.4416 35.0503H14.5011M14.5011 35.0503L15.1876 32.8535" stroke="black" stroke-opacity="0.7" stroke-width="2"/>
</svg>
