<svg width="53" height="62" viewBox="0 0 53 62" fill="none" xmlns="http://www.w3.org/2000/svg">
<path d="M14.8176 35.5989L14.2979 34.6518L13.7783 33.649L13.2587 32.5348L12.739 31.4206L12.3926 30.4178L12.2194 29.6379L11.9885 28.5794L11.873 27.7437L11.7575 26.7967L11.642 25.7939V24.7354V23.7883L11.6998 23.3983L11.7575 23.0084L11.873 22.2841L11.9885 21.727L12.1617 21.1142L12.4503 20.2786L12.7968 19.5543L13.2009 18.8301L13.7783 18.1616L14.2979 17.5487L15.0485 16.7131L15.7413 16.1003L16.6074 15.4318L17.358 14.9861L18.3395 14.5404L19.7252 14.2618H21.5727H23.6513L26.6536 15.5989L29.3095 17.2145L31.7344 15.5989L34.2171 14.5404L36.5266 14.2618H38.836L40.2217 14.5404L41.5497 14.9861L43.2818 16.1003L44.1478 16.7131L44.9561 17.5487L45.4758 18.1616L45.9954 18.8301L46.5727 19.5543L47.0346 20.2786L47.4965 21.1142V22.2841V23.0084V23.3983V23.7883V24.7354V25.7939V26.7967V27.7437V28.5794L47.0346 29.6379L46.5727 30.9192M14.8176 35.5989L2 50.0279L11.9307 60L17.4157 53.3705L38.836 50.6407L52 35.5989V34.6518V34.0947V33.649C51.9808 33.649 51.8961 33.5376 51.7113 33.0919C51.5266 32.6462 51.2109 32.1634 51.0762 31.9777L50.7875 31.6992L50.5566 31.532L50.2679 31.3649L49.9792 31.2535L49.6905 31.1421L49.4018 31.0306L48.94 30.9192H48.6513H48.2471H47.9007H46.5727M14.8176 35.5989L31.7344 31.9777L32.8314 32.4234L33.2933 32.7577L33.6397 33.1476L34.0439 33.9276L34.2171 34.8747V35.5989L34.0439 36.2117L33.8707 36.6017L33.6397 36.8802L33.2933 37.2145L32.8314 37.5487L23.709 41.2256L27.1732 45.1253L37.5081 42.5627L46.5727 30.9192M10.8915 1.89415L15.7413 8.74652M29.3095 0V6.23955M47.4965 1.89415L42.7044 8.74652" stroke="black" stroke-opacity="0.7" stroke-width="2"/>
</svg>
