<svg width="104" height="94" viewBox="0 0 104 94" fill="none" xmlns="http://www.w3.org/2000/svg">
<path d="M77.6021 17.3631V23.0955M77.6021 28.828V23.0955M77.6021 23.0955H81.1623H73.8325M76.2408 8.30573L74.9843 6.01274L73.8325 4.75159L71.8429 3.3758L69.3298 2.4586L66.712 2L64.5131 2.4586L62.1047 3.3758L59.3822 6.47134L58.2304 9.68153L57.8115 11.9745L58.2304 15.5287L76.2408 39.0318L93.623 15.5287L94.4607 11.9745L94.0419 9.68153L92.6806 6.47134L89.9581 3.3758L87.445 2.4586H85.1414L82.4189 3.03185L79.3822 4.75159L77.6021 6.01274L76.2408 8.30573Z" stroke="black" stroke-opacity="0.7" stroke-width="2"/>
<path d="M12.0405 57.949L8.91099 54.5095L2 61.7325L30.2723 92L36.555 84.8917L33.0995 81.0939M12.0405 57.949L25.7696 42.9299L27.8639 41.3248L30.2723 40.4076L33.0995 39.7197H38.5445L41.1623 40.4076L46.0838 42.9299H62.3141L64.3037 43.3885L65.7696 44.535L66.8168 46.2548V50.4968L65.7696 52.3312L63.7801 54.5095M12.0405 57.949L33.0995 81.0939M63.7801 54.5095H48.3874M63.7801 54.5095L71.7382 53.363L89.5393 45.3376L93.2042 42.4713C94.0419 41.9745 95.7382 41.0038 95.822 41.0955C95.9058 41.1872 96.7644 41.1337 97.1832 41.0955L98.7539 41.6688L100.22 42.4713C101.56 44.1223 101.965 45.6815 102 46.2548L101.581 49.121L100.639 51.1847L98.7539 52.7898L93.2042 56.9172L69.2251 69.9872L39.1728 74.9172L33.0995 81.0939" stroke="black" stroke-opacity="0.7" stroke-width="2"/>
</svg>
