<svg width="92" height="102" viewBox="0 0 92 102" fill="none" xmlns="http://www.w3.org/2000/svg">
<path d="M66.022 39.7255V20.1176L74.348 32.3725L81.4846 25.0196L67.6079 1H54.9207M66.022 39.7255L63.6432 42.6667L62.8502 44.6275L60.8678 42.6667L58.489 41.6863H54.9207M66.022 39.7255L68.0044 38.7451C68.7974 38.4183 70.7797 37.9608 72.3656 38.7451C73.9515 39.5294 75.9339 41.0327 76.7269 41.6863C77.3877 42.1765 78.7092 43.451 78.7092 44.6275C78.7092 45.8039 78.7092 51 78.7092 53.451M54.9207 41.6863L53.3348 42.6667L50.9559 44.6275L49.37 47.0784L47.3877 49.5294V53.451M54.9207 41.6863V37.7647L53.3348 34.3333L50.9559 31.3922L48.5771 29.4314L45.4053 27.9608L43.0264 26.9804H38.6652L36.6828 27.9608L33.511 29.4314L30.7357 31.3922L29.1498 33.3529L27.1674 35.3137M47.3877 53.451H14.0837M47.3877 53.451H78.7092M14.0837 53.451H9.32599L8.13656 55.4118V57.3725L9.32599 58.3529H12.4978M14.0837 53.451L14.4802 51L16.4626 47.5686L20.0308 44.6275L21.6167 43.6471H27.1674M27.1674 43.6471L29.1498 44.6275L30.7357 46.098L31.5286 47.5686M27.1674 43.6471V35.3137M27.1674 35.3137V20.1176L18.8414 32.3725L11.7048 25.0196L25.185 1H36.6828M36.6828 1L37.4758 4.43137L39.4581 7.86275C41.6784 10.2157 44.348 11.7843 45.4053 12.2745C46.1982 12.2745 47.9427 12.2745 48.5771 12.2745C51.4317 10.3137 52.9383 8.51634 53.3348 7.86275L54.9207 4.43137V1M36.6828 1H54.9207M78.7092 53.451H81.4846L83.0705 54.4314V56.8824L81.4846 58.3529H79.5022M12.4978 58.3529H79.5022M12.4978 58.3529L13.5915 65.7059M79.5022 58.3529L73.1586 101H18.8414L17.6019 92.6667M17.6019 92.6667H47.3877M17.6019 92.6667L14.3207 70.6078M13.5915 65.7059C5.42139 65.7059 2.32159 66.3595 1.79295 66.6863C1.52863 66.8497 1 67.4706 1 68.6471C1 70.2157 2.5859 70.6078 3.37885 70.6078H14.3207M13.5915 65.7059L14.3207 70.6078M54.9207 92.6667H63.6432M78.4085 65.7059C86.5786 65.7059 89.6784 66.3595 90.207 66.6863C90.4714 66.8497 91 67.4706 91 68.6471C91 70.2157 89.4141 70.6078 88.6211 70.6078H77.6793L78.4085 65.7059Z" stroke="black" stroke-opacity="0.7" stroke-width="2"/>
</svg>
