<svg width="92" height="103" viewBox="0 0 92 103" fill="none" xmlns="http://www.w3.org/2000/svg">
<path d="M4.04054 51.3711H1V44.7673H29.277M4.04054 51.3711L5.56081 65.2075M4.04054 51.3711H58.7703M5.56081 65.2075H56.6419M5.56081 65.2075H2.82432L5.56081 86.2767H7.38514M56.6419 65.2075L58.7703 51.3711M56.6419 65.2075H59.6824L56.6419 86.2767H54.2095M58.7703 51.3711H62.1149V44.7673H36.2703M7.38514 86.2767L9.20946 102H51.777L54.2095 86.2767M7.38514 86.2767H54.2095M27.1486 13.6352H16.2027V8.60377M27.1486 13.6352L29.277 10.805L29.8851 8.60377M27.1486 13.6352L26.2365 16.4654V18.9811L29.277 23.6981L29.8851 25.5849C29.6419 27.5975 29.1757 29.1488 28.973 29.673L27.1486 31.8742L26.2365 33.1321C26.2365 36.1509 26.6419 37.7442 26.8446 38.1635L28.3649 40.0503L29.277 41.6226V44.7673M50.2568 8.60377H36.2703M16.2027 8.60377V3.88679L91 2V8.91824M16.2027 8.60377H29.8851M29.8851 8.60377H36.2703M29.277 44.7673H36.2703M36.2703 44.7673V42.2516L35.9662 41.6226L35.0541 40.0503L33.8378 38.1635L33.2297 33.4465L33.8378 31.8742L35.9662 29.673L36.5743 25.5849L35.9662 23.6981L33.2297 18.9811V16.1509L34.75 13.6352L36.2703 10.805V8.60377M49.9527 8.60377H43.5676L42.9595 10.805L40.8311 13.6352L39.9189 16.4654V18.9811L42.9595 23.6981L43.5676 25.5849C43.3243 27.5975 42.8581 29.1488 42.6554 29.673L40.8311 31.8742L39.9189 33.1321C39.9189 36.1509 40.3243 37.7442 40.527 38.1635L42.0473 40.0503L42.9595 41.6226V44.7673H49.9527V42.2516L49.6486 41.6226L48.7365 40.0503L47.5203 38.1635L46.9122 33.4465L47.5203 31.8742L49.6486 29.673L50.2568 25.5849L49.6486 23.6981L46.9122 18.9811V16.1509L47.8623 14.5786M49.9527 8.60377V10.805L48.4324 13.6352L47.8623 14.5786M49.9527 8.60377L91 8.91824M47.8623 14.5786L91 15.8365V8.91824" stroke="black" stroke-opacity="0.7" stroke-width="2"/>
</svg>
