<svg width="92" height="102" viewBox="0 0 92 102" fill="none" xmlns="http://www.w3.org/2000/svg">
<path d="M1 36.3835V55.9204L1.60606 56.644L2.36364 57.2229L3.12121 57.7294L3.95455 58.2359L5.4697 58.8871L8.42424 59.9001M1 36.3835L2.36364 37.5412L3.12121 38.1201L3.95455 38.5543L5.4697 39.1331L8.42424 40.0014L13.7273 40.8698L16.1515 41.2315H27.4394L31.5303 40.8698L36.2273 40.0014L39.0303 39.1331L40.3939 38.5543L41.2273 38.1201L41.9091 37.5412L42.4394 37.0347L42.9697 36.3835M1 36.3835V34.4298L2.36364 33.1997L3.12121 32.5485L3.95455 32.042L5.4697 31.3184L8.42424 30.5224L13.7273 29.6541L16.1515 29.437H27.4394L31.5303 29.8712L36.2273 30.8842L39.0303 31.8249L40.3939 32.4761M8.42424 59.9001L10.697 60.3343L13.7273 60.6237L16.1515 60.8408H17.7424M8.42424 59.9001L7.43939 61.7815M42.9697 36.3835V55.9204L42.4394 56.644L42.1742 56.9334M42.9697 36.3835V34.4298L41.9091 33.4891L41.2273 33.055L40.3939 32.4761M40.3939 32.4761V29.437V8.45297M28.7273 48.7569L27.4394 47.7438L25.0909 46.2967L23.197 45.7902L20.3182 45.4284H16.9091L15.0152 45.7902L13.2727 46.2967L10.697 47.7438L7.89394 49.7699L10.697 51.9407L13.2727 53.2431L15.0152 53.822L16.9091 54.1114H20.3182L23.197 53.5326L25.0909 52.9537L27.4394 51.6512L28.7273 50.7106M28.7273 48.7569L30.0152 49.7699L28.7273 50.7106M28.7273 48.7569L36.7576 44.9219L34.3333 49.7699L36.7576 54.1114L28.7273 50.7106M7.43939 61.7815L8.42424 63.5181L10.697 64.8929L13.7273 65.9059L16.1515 66.5572L19.3333 67.136L27.4394 67.5702H31.5303L37.0606 67.136L39.0303 66.8466L40.3939 66.5572L42.8939 66.0507L44.5606 65.5441L46 64.8929L47.7424 64.0246L49.4091 62.7221L50.0152 61.4197M7.43939 61.7815V95.8625L8.65152 97.165L9.71212 97.8162L11.8333 98.8292L14.8636 99.7699L18.0455 100.349L21.0758 100.638L24.8636 101H31.9848L37.4394 100.638L39.9394 100.349L42.9697 99.7699L46 98.8292L47.9697 97.8162L48.9545 97.165L50.0152 95.8625V83.5615M42.1742 56.9334L41.9091 57.2229L41.2273 57.7294L40.3939 58.2359L39.0303 58.8871L37.0606 59.599M42.1742 56.9334L44.5606 57.9465L46 58.5977L47.3636 59.3905M17.7424 60.8408H19.3333H27.4394L31.5303 60.6237L36.2273 59.9001L37.0606 59.599M17.7424 60.8408L17.2879 61.7815L18.1212 62.4327L19.6364 63.0116L21 63.301L24.1818 63.5181H33.7273L36.7576 63.301L37.9697 63.0116L39.0303 62.4327L39.7879 61.7815V61.4197L39.1818 60.9132L38.5758 60.6237L37.9697 60.1896L37.0606 59.599M50.0152 61.4197L49.4091 60.8408L47.7424 59.6107L47.3636 59.3905M50.0152 61.4197V70.8263M40.3939 8.45297L42.9697 10.3343L46 11.8538L49.3333 12.7945L51.6061 13.2287L55.5455 13.6628L60.3182 14.0246H71L76.0758 13.6628L79.5606 13.2287L82.0606 12.7945L85.3939 11.8538L88.5 10.3343L91 8.45297M40.3939 8.45297V6.86107L41.2273 5.99276L42.9697 4.6903L46 3.31548L49.3333 2.30246L51.6061 1.86831L55.5455 1.36179L60.3182 1H71.6061L76.0758 1.36179L79.5606 1.72359L82.0606 2.30246L85.3939 3.17077L87.3636 3.96671L89.0303 4.90738L90.2424 5.99276L91 7.22287V8.45297M91 8.45297V80.233L87.5909 82.259L83.803 83.5615L75.3182 85.0087L60.1667 85.2981L56.8333 84.9363L53.5 84.5745L50.0152 83.5615M50.0152 83.5615V70.8263M50.0152 70.8263L53.197 71.8394L61 72.563H69.4091L73.803 72.2012L76.9849 71.8394L79.7879 71.4052L82.1364 70.8263L84.4091 70.0304V22.1288L82.0606 22.78L79.1818 23.2142L76.4545 23.7207L73.1212 24.1548L68.197 24.4443H63.0455L57.8182 24.1548L54.5606 23.7207L51.6061 23.2142L49.3333 22.78L47.3636 22.1288V55.1968V59.3905M11.4545 35.5876L12.6667 34.7916L13.7273 34.4298L15.0152 34.1404L16.6818 33.9233L18.6515 33.7062H25.0909L27.5909 33.9233L29.1061 34.1404L30.8485 34.4298L31.9848 34.7916L33.197 35.5876V36.0217L31.9848 36.6729L31 36.9624L29.1061 37.1794L27.5909 37.3242L25.5455 37.4689H19.0303L16.6818 37.3242L15.0152 37.1794L13.7273 36.9624L12.6667 36.6729L11.4545 35.5876Z" stroke="black" stroke-opacity="0.7" stroke-width="2"/>
<path d="M35.5458 81.277L33.6519 79.7265L31.9094 78.8582L29.4094 78.0622L27.5155 77.5557H25.7731H24.0307L21.6064 78.0622L19.3337 78.8582L16.7579 80.4501L14.6367 82.3314L16.7579 84.4298L19.3337 85.8046L21.6064 86.3835L24.0307 86.89H25.7731H27.5155L29.4094 86.3835L31.9094 85.4428L33.6519 84.4298L35.5458 83.1808M35.5458 81.277L36.8337 82.3314L35.5458 83.1808M35.5458 81.277L43.3488 77.5557L40.4701 82.3314L43.3488 86.89L35.5458 83.1808" stroke="black" stroke-opacity="0.7" stroke-width="2"/>
<path d="M60.6209 46.369L54.6361 35.2258L53.9542 35.3705H53.4239L52.6664 35.2258L52.1361 35.0087L51.6815 34.5745L51.3785 34.068L51.3027 33.4168V32.9103L51.3785 32.4761L51.6815 31.8973L52.1361 31.3907L52.6664 31.1013H53.2724L54.1815 31.1737L55.2421 31.4631L55.4694 30.5948L55.7724 30.0159L56.4542 29.3647L57.1361 29.1476H57.8179L58.4997 29.3647L58.8785 29.6541L59.333 30.233L59.5603 30.8119V31.4631L59.333 32.1867L58.8785 32.9103L58.4997 33.4168L64.4846 44.4877M60.6209 46.369H61.7573H62.3633L63.6512 45.6454L64.1058 45.2113L64.4846 44.4877M60.6209 46.369L60.0149 49.191L59.6361 51.2894L59.333 53.3155V56.2098L59.6361 59.1042L60.3179 61.5644L61.227 63.5905L62.3633 65.3271L63.6512 66.5572L65.3179 67.4978L67.1361 67.7873H68.6512L70.6209 67.4978L72.3633 66.9913L74.1815 66.1954L75.5452 65.3271L76.53 64.0246L77.2876 62.8669L77.7421 61.5644V60.1896V59.1042L77.2876 57.5123C77.0351 56.9817 76.53 55.9059 76.53 55.8481C76.53 55.7902 75.6714 54.5697 75.2421 53.9667L74.1815 52.5919L72.9694 51.2894L71.53 49.9146L69.9391 48.4674L68.4239 47.3097L66.833 46.369L65.3179 45.2113L64.4846 44.4877M52.3633 7.94646L53.4239 7.29523L54.6361 6.78872L56.1512 6.42693L58.5755 5.99277L61.1512 5.7757H69.7876L71.833 5.99277L74.7118 6.42693L76.3785 6.78872L77.8936 7.29523L78.8785 7.94646L77.8936 8.74241L76.3785 9.24892L74.7118 9.61072L71.833 9.97251L69.9391 10.1172H61.1512L58.5755 9.97251L56.1512 9.61072L54.6361 9.24892L53.4239 8.74241L52.3633 7.94646Z" stroke="black" stroke-opacity="0.7" stroke-width="2"/>
</svg>
