<svg width="93" height="102" viewBox="0 0 93 102" fill="none" xmlns="http://www.w3.org/2000/svg">
<path d="M36.7117 10.3429H39.9324V18.0431M36.7117 10.3429V1H30.5388V5.67146M36.7117 10.3429H30.5388M30.5388 10.3429H27.2286V18.0431M30.5388 10.3429V5.67146M30.5388 5.67146H32.5964M27.2286 21.9446H39.9324M27.2286 21.9446V18.0431M27.2286 21.9446L26.6918 24.1006L26.2445 25.538L25.3499 27.1807L23.829 29.4394L22.666 31.2875L21.5924 33.3409L20.6978 35.1889L19.8926 37.1396L18.998 39.501L18.3718 41.7598L17.6561 44.6345L17.0298 47.8172L16.5825 52.848L16.1352 57.1602L15.5984 63.423L14.9722 69.9938L14.5249 76.154L14.3459 79.3368M39.9324 21.9446V18.0431M39.9324 21.9446L40.3797 24.1006L41.0954 25.538L41.9901 27.1807L43.6899 29.4394L45.0318 31.2875L46.3738 33.3409L47.3579 35.1889L48.4314 37.1396L49.4155 39.501L50.2207 41.7598L51.1153 44.6345L51.9205 47.8172L52.7256 52.0267L53.3519 56.0308M39.9324 18.0431H27.2286M53.3519 56.0308L51.9205 57.1602L50.668 58.3922L49.7734 59.5216L48.9682 60.7536M53.3519 56.0308L54.8728 55.1068C56.0895 54.614 74.167 54.4223 83.0537 54.3881L83.7694 54.5934L85.1113 55.2094L86.7217 56.2361L87.7058 56.9548L88.6899 57.9815L89.495 59.2136L90.3002 60.5483L91.2843 62.807L92 64.963V78.0021L91.6421 79.5421L91.1054 80.7741L90.2107 82.3142L89.0477 84.1622L87.3479 86.0103L86.0954 87.2423L83.9483 88.577M48.9682 60.7536L48.4314 62.0883L47.6262 64.347V87.345L48.163 89.2957L49.2366 91.8624L50.5785 93.5051L52.7256 95.5585M48.9682 60.7536L46.4632 48.4333H21.9503L18.4612 80.4661M52.7256 95.5585L54.7833 96.8932L57.0199 97.7146H89.4056L89.9423 97.4066L90.2107 96.9959L90.6581 96.3799V89.809L90.2107 88.885L89.9423 88.577H89.4056H83.9483M52.7256 95.5585H30.4692M63.2823 73.1766V73.8953L63.3718 74.614L63.5507 75.4353L63.7296 76.154L63.998 76.9754L64.5348 77.7967L65.161 78.5154L66.2346 79.5421L67.5765 80.3634H68.6501H78.67H79.4752H80.8171L82.7853 79.5421L84.3956 78.0021L85.0219 76.9754L85.3797 75.7433V74.7166V71.0205V69.9938L85.0219 68.0431L84.3956 66.7084L82.7853 64.963L80.8171 63.8337L79.4752 63.423H78.67H61.3141H60.6879L59.7932 63.8337L58.0934 64.963L56.3936 66.7084L55.499 68.0431L54.7833 69.9938L54.5149 71.0205V80.7741L54.7833 82.2115L55.499 83.8542L56.3936 85.1889L58.0934 86.6263L59.7932 87.7556L60.6879 88.269L61.3141 88.577H83.9483M14.3459 79.3368H13.1829L11.4831 79.8501L9.96223 80.4661L8.17296 81.4928L6.56262 82.5195L5.22068 83.6489L2 87.7556L3.25249 87.961C4.1829 88.2895 4.95229 88.7823 5.22068 88.9877L6.56262 90.0144L7.90457 91.7598L9.15706 93.6078L10.4095 94.9425L11.841 96.1745L13.0934 96.8932L14.4354 97.3039L15.5984 97.6119H16.9404L18.4612 97.3039L19.8032 96.6879L20.7873 96.0719L21.9503 95.2505L23.3817 93.9158L24.3658 92.8891L25.0815 91.4517M14.3459 79.3368L15.8668 79.5421L17.2087 79.8501L18.4612 80.4661M25.0815 91.4517L29.5547 95.2505L30.5388 96.2772M25.0815 91.4517L24.5447 91.0411L23.9185 90.5277L23.2028 90.0144L21.503 89.193L17.6561 87.5503L16.5825 87.0883M25.0815 91.4517L24.5447 89.193L23.9185 87.0883L23.2028 85.1889L21.9503 83.2382L20.2505 81.4928L19.0875 80.7741L18.4612 80.4661M30.5388 96.2772L31.6123 97.6119L34.0278 101M30.5388 96.2772L30.4692 95.5585M30.4493 88.3717L30.8966 82.7248M30.4493 88.3717L28.9284 86.9343L28.0338 85.8049L27.497 84.8809L26.7813 83.6489L26.0656 82.3142L25.5288 81.1848L25.171 79.9528L24.8131 78.4127L24.6342 77.078V75.7433V74.5113V73.5873V72.0472L24.8131 71.1232L25.171 69.8912L25.6183 68.9671L26.4235 67.6324L27.4076 66.2977L30.1809 62.9096L30.8966 62.191L31.9702 61.2669L33.4016 60.3429L35.7276 59.1109L37.8748 58.2895L40.1113 57.6735H42.4374L41.5427 60.1376L41.2744 61.7803V65.3737L41.7217 66.4004L42.169 67.3244L42.6163 68.5565L42.9742 69.6858L43.332 71.0205L43.5109 72.6632V77.2834L43.332 78.9261L42.7058 80.7741L41.4533 82.8275L40.0219 84.5729L38.3221 86.1129C36.3181 87.4271 34.6243 88.3032 34.0278 88.577L30.3598 89.3984M30.4493 88.3717L30.3598 89.3984M30.8966 82.7248L27.7654 77.5914M30.8966 82.7248L32.5616 77.2834M32.5616 77.2834L35.0119 69.2752L36.2644 65.3737M32.5616 77.2834L36.2644 75.3326L38.3221 74.5113M8.35189 86.3183L15.2406 86.6263L16.2247 86.9343L16.5825 87.0883M16.5825 87.0883L16.3141 86.2156L16.1352 85.8049L15.8668 85.3942L13.1829 83.2382M30.4692 95.5585L30.2704 93.5051V90.425L30.3598 89.3984" stroke="black" stroke-opacity="0.7" stroke-width="2"/>
</svg>
