<svg width="92" height="105" viewBox="0 0 92 105" fill="none" xmlns="http://www.w3.org/2000/svg">
<path d="M39.6 12.6567L36.4 15.6609L33.2 12.6567L30 15.6609L26.8 12.6567L23.6 15.6609L20.4 12.6567L17.2 15.6609L14 12.6567L10.8 15.6609L7.6 12.6567L4.4 15.6609L1 12.6567V22.5279M39.6 12.6567L42.8 15.6609L46 12.6567L49 15.6609L52.6 12.6567M39.6 12.6567V3L42.8 5.7897L46 3L49.2 5.7897L52.4 3L55.6 5.7897L58.8 3L62 5.7897L65.2 3L68.4 5.7897L71.6 3L74.8 5.7897L78 3L81.2 5.7897L84.6 3L87.6 5.7897L90.8 3V12.6567M39.6 12.6567H46.1M52.6 12.6567V22.5279M52.6 12.6567H46.1M52.6 12.6567V9.00858M52.6 12.6567H58.8M52.6 22.5279H1M52.6 22.5279L50.8 29.3948V34.1159M1 22.5279L3 29.3948V77.2489L1 83.4721M1 83.4721V92.2704L4.4 90.9828L7.6 93.1288L10.8 90.9828L14 93.1288L17.2 90.9828L22 93.1288M1 83.4721H22M22 93.1288V103L29 100.183M22 93.1288V83.4721M29 75.5322L22 72.0987V83.4721M29 75.5322H50.8M29 75.5322V100.183M60.4 75.5322L66.8 72.0987V78.9657M60.4 75.5322H50.8M60.4 75.5322V99.7811M60.4 99.7811L66.8 103V85.4034M60.4 99.7811H30L29 100.183M66.8 78.9657H71.6M66.8 78.9657V85.4034M91 78.9657L89.2 67.5923V65.6609L89.8 63.3004L90.2 61.5837L90.6 59.4378L90.8 55.7897V35.8326L90.6 34.1159L90.2 31.97L89.8 29.824L89.2 28.1073V24.2446L90.8 12.6567M91 78.9657H84.5M91 78.9657V89.0515L87.6 87.1202L84.3545 89.0515L81.2 87.1202L78 89.0515L74.8 87.1202L71.6 89.0515L66.8 85.4034M90.8 12.6567H84.4M50.8 75.5322V59.4378M50.8 34.1159H79.6V59.4378H50.8M50.8 34.1159V59.4378M46.1 12.6567L46 9.00858M58.8 12.6567V9.00858M58.8 12.6567H65.2M65.2 12.6567V9.00858M65.2 12.6567H71.6M71.6 12.6567V9.00858M71.6 12.6567H78M78 12.6567V9.00858M78 12.6567H84.4M84.4 12.6567V9.00858M71.6 83.4721V78.9657M71.6 78.9657H78M78 78.9657V83.4721M78 78.9657H84.5M84.5 78.9657V83.4721M9.2 48.7082V63.3004L15.2 59.4378L17.8 58.5794H39.6L42.8 57.0773L44 55.7897V39.9099L35.2 42.9142H14H11.8L10.8 43.7725L9.8 45.0601L9.2 45.9185V48.7082Z" stroke="black" stroke-opacity="0.7" stroke-width="2"/>
<mask id="path-2-inside-1_552_8" fill="white">
<path fill-rule="evenodd" clip-rule="evenodd" d="M68.4002 41.1975C68.4002 42.2187 68.2668 43.2318 68.0064 44.1975C67.9506 44.4042 67.889 44.6088 67.8217 44.8108C67.7448 45.0413 67.6607 45.2677 67.5697 45.4893H68.3998H72.9998H75.9998C75.9998 46.5106 75.8664 47.5236 75.606 48.4893C75.5502 48.696 75.4886 48.9006 75.4213 49.1026C75.0394 50.2482 74.4795 51.2891 73.7738 52.1658C73.0681 53.0426 72.2303 53.7381 71.3082 54.2126C70.3861 54.6871 69.3979 54.9314 68.3998 54.9314C67.4018 54.9314 66.4135 54.6871 65.4914 54.2126C64.5693 53.7381 63.7315 53.0426 63.0258 52.1658C62.6256 51.6686 62.2723 51.1186 61.9717 50.5267C61.585 50.6016 61.1934 50.6395 60.8002 50.6395C59.8021 50.6395 58.8139 50.3953 57.8918 49.9208C56.9697 49.4463 56.1319 48.7508 55.4262 47.874C54.7205 46.9972 54.1606 45.9563 53.7787 44.8108C53.7114 44.6088 53.6498 44.4042 53.594 44.1974C53.3336 43.2318 53.2002 42.2187 53.2002 41.1974H56.2002L60.8002 41.1975H65.4002H68.4002ZM64.2011 45.4893H63.7998H60.7998C60.7998 46.2127 60.8667 46.932 60.9983 47.6332C60.932 47.6374 60.8659 47.6395 60.8002 47.6395C60.2986 47.6395 59.7791 47.5181 59.2645 47.2533C58.7462 46.9865 58.2287 46.5712 57.7632 45.9929C57.3609 45.4932 57.0116 44.8884 56.7452 44.1975L60.8002 44.1975H64.8552C64.6728 44.6705 64.4516 45.1031 64.2011 45.4893ZM64.7115 49.2931C64.906 49.6577 65.1252 49.9895 65.3628 50.2848C65.8283 50.8631 66.3458 51.2784 66.8641 51.5451C67.3787 51.8099 67.8982 51.9314 68.3998 51.9314C68.9014 51.9314 69.4209 51.8099 69.9355 51.5451C70.4538 51.2784 70.9713 50.8631 71.4368 50.2848C71.8391 49.785 72.1884 49.1803 72.4548 48.4893H68.3998L65.6284 48.4893C65.339 48.7851 65.0325 49.0537 64.7115 49.2931Z"/>
</mask>
<path d="M68.0064 44.1975L68.9719 44.4579V44.4579L68.0064 44.1975ZM68.4002 41.1975H69.4002V40.1975H68.4002V41.1975ZM67.8217 44.8108L66.873 44.4945V44.4945L67.8217 44.8108ZM67.5697 45.4893L66.6447 45.1093L66.0779 46.4893H67.5697V45.4893ZM75.9998 45.4893H76.9998V44.4893H75.9998V45.4893ZM75.606 48.4893L74.6405 48.2289V48.2289L75.606 48.4893ZM75.4213 49.1026L74.4726 48.7863L74.4726 48.7863L75.4213 49.1026ZM73.7738 52.1658L72.9948 51.5388V51.5388L73.7738 52.1658ZM71.3082 54.2126L70.8506 53.3234V53.3234L71.3082 54.2126ZM65.4914 54.2126L65.949 53.3234H65.949L65.4914 54.2126ZM63.0258 52.1658L63.8048 51.5388L63.8048 51.5388L63.0258 52.1658ZM61.9717 50.5267L62.8634 50.0739L62.5219 49.4014L61.7814 49.5449L61.9717 50.5267ZM57.8918 49.9208L58.3494 49.0316L58.3494 49.0316L57.8918 49.9208ZM55.4262 47.874L54.6472 48.501H54.6472L55.4262 47.874ZM53.7787 44.8108L54.7274 44.4945L54.7274 44.4945L53.7787 44.8108ZM53.594 44.1974L52.6285 44.4579L52.6285 44.4579L53.594 44.1974ZM53.2002 41.1974V40.1974H52.2002V41.1974H53.2002ZM56.2002 41.1974L56.2002 40.1974H56.2002V41.1974ZM60.8002 41.1975L60.8002 42.1975H60.8002V41.1975ZM64.2011 45.4893V46.4893H64.7444L65.0401 46.0334L64.2011 45.4893ZM60.7998 45.4893V44.4893H59.7998V45.4893H60.7998ZM60.9983 47.6332L61.0618 48.6312L62.1896 48.5594L61.9812 47.4488L60.9983 47.6332ZM59.2645 47.2533L59.7221 46.3641H59.7221L59.2645 47.2533ZM57.7632 45.9929L56.9842 46.6199L56.9842 46.6199L57.7632 45.9929ZM56.7452 44.1975V43.1975L55.2879 43.1974L55.8122 44.5572L56.7452 44.1975ZM60.8002 44.1975V45.1975V44.1975ZM64.8552 44.1975L65.7882 44.5572L66.3125 43.1975H64.8552V44.1975ZM64.7115 49.2931L64.1137 48.4914L63.4247 49.0053L63.8292 49.7637L64.7115 49.2931ZM65.3628 50.2848L64.5838 50.9118L64.5838 50.9118L65.3628 50.2848ZM66.8641 51.5451L67.3217 50.6559H67.3217L66.8641 51.5451ZM69.9355 51.5451L69.4779 50.6559H69.4779L69.9355 51.5451ZM71.4368 50.2848L72.2158 50.9118L72.2158 50.9118L71.4368 50.2848ZM72.4548 48.4893L73.3878 48.849L73.9121 47.4893H72.4548V48.4893ZM68.3998 48.4893V49.4893V48.4893ZM65.6284 48.4893V47.4893H65.2078L64.9137 47.7899L65.6284 48.4893ZM68.9719 44.4579C69.2556 43.4059 69.4002 42.3052 69.4002 41.1975H67.4002C67.4002 42.1323 67.278 43.0577 67.0409 43.937L68.9719 44.4579ZM68.7703 45.1271C68.8439 44.9064 68.9111 44.6832 68.9719 44.4579L67.0409 43.937C66.9901 44.1252 66.9342 44.3111 66.873 44.4945L68.7703 45.1271ZM68.4947 45.8692C68.5944 45.6265 68.6864 45.3789 68.7703 45.1271L66.873 44.4945C66.8032 44.7038 66.727 44.9089 66.6447 45.1093L68.4947 45.8692ZM68.3998 44.4893H67.5697V46.4893H68.3998V44.4893ZM72.9998 44.4893H68.3998V46.4893H72.9998V44.4893ZM75.9998 44.4893H72.9998V46.4893H75.9998V44.4893ZM76.5715 48.7497C76.8552 47.6977 76.9998 46.597 76.9998 45.4893H74.9998C74.9998 46.4241 74.8777 47.3496 74.6405 48.2289L76.5715 48.7497ZM76.3699 49.4189C76.4435 49.1983 76.5107 48.975 76.5715 48.7497L74.6405 48.2289C74.5897 48.417 74.5338 48.6029 74.4726 48.7863L76.3699 49.4189ZM74.5528 52.7929C75.3384 51.8169 75.9531 50.669 76.37 49.4189L74.4726 48.7863C74.1256 49.8273 73.6207 50.7613 72.9948 51.5388L74.5528 52.7929ZM71.7658 55.1018C72.8224 54.558 73.767 53.7691 74.5528 52.7929L72.9948 51.5388C72.3692 52.3161 71.6381 52.9182 70.8506 53.3234L71.7658 55.1018ZM68.3998 55.9314C69.5633 55.9314 70.7079 55.6462 71.7658 55.1018L70.8506 53.3234C70.0644 53.7281 69.2324 53.9314 68.3998 53.9314V55.9314ZM65.0338 55.1018C66.0917 55.6462 67.2363 55.9314 68.3998 55.9314V53.9314C67.5672 53.9314 66.7352 53.7281 65.949 53.3234L65.0338 55.1018ZM62.2468 52.7929C63.0326 53.7691 63.9772 54.558 65.0338 55.1018L65.949 53.3234C65.1615 52.9182 64.4304 52.3161 63.8048 51.5388L62.2468 52.7929ZM61.0801 50.9794C61.4105 51.6302 61.8011 52.2391 62.2468 52.7929L63.8048 51.5388C63.4501 51.0981 63.134 50.607 62.8634 50.0739L61.0801 50.9794ZM60.8002 51.6395C61.2578 51.6395 61.7132 51.5954 62.162 51.5084L61.7814 49.5449C61.4569 49.6078 61.129 49.6395 60.8002 49.6395V51.6395ZM57.4342 50.8099C58.4921 51.3544 59.6367 51.6395 60.8002 51.6395V49.6395C59.9676 49.6395 59.1356 49.4362 58.3494 49.0316L57.4342 50.8099ZM54.6472 48.501C55.433 49.4773 56.3776 50.2662 57.4342 50.8099L58.3494 49.0316C57.5619 48.6264 56.8308 48.0243 56.2052 47.247L54.6472 48.501ZM52.83 45.1271C53.2468 46.3772 53.8616 47.525 54.6472 48.501L56.2052 47.247C55.5793 46.4694 55.0744 45.5355 54.7274 44.4945L52.83 45.1271ZM52.6285 44.4579C52.6893 44.6832 52.7565 44.9064 52.83 45.1271L54.7274 44.4945C54.6662 44.3111 54.6103 44.1252 54.5595 43.937L52.6285 44.4579ZM52.2002 41.1974C52.2002 42.3052 52.3448 43.4059 52.6285 44.4579L54.5595 43.937C54.3223 43.0577 54.2002 42.1323 54.2002 41.1974H52.2002ZM56.2002 40.1974H53.2002V42.1974H56.2002V40.1974ZM60.8002 40.1975L56.2002 40.1974L56.2002 42.1974L60.8002 42.1975L60.8002 40.1975ZM65.4002 40.1975H60.8002V42.1975H65.4002V40.1975ZM68.4002 40.1975H65.4002V42.1975H68.4002V40.1975ZM64.2011 44.4893H63.7998V46.4893H64.2011V44.4893ZM63.7998 44.4893H60.7998V46.4893H63.7998V44.4893ZM59.7998 45.4893C59.7998 46.2742 59.8724 47.0552 60.0155 47.8176L61.9812 47.4488C61.8611 46.8088 61.7998 46.1512 61.7998 45.4893H59.7998ZM60.8002 48.6395C60.8871 48.6395 60.9743 48.6368 61.0618 48.6312L60.9348 46.6352C60.8897 46.6381 60.8448 46.6395 60.8002 46.6395V48.6395ZM58.807 48.1424C59.4575 48.4772 60.1332 48.6395 60.8002 48.6395V46.6395C60.4639 46.6395 60.1008 46.559 59.7221 46.3641L58.807 48.1424ZM56.9842 46.6199C57.5298 47.2978 58.1541 47.8065 58.807 48.1424L59.7221 46.3641C59.3383 46.1666 58.9275 45.8446 58.5422 45.3659L56.9842 46.6199ZM55.8122 44.5572C56.1133 45.3382 56.5128 46.0344 56.9842 46.6199L58.5422 45.3659C58.209 44.9519 57.9099 44.4386 57.6783 43.8377L55.8122 44.5572ZM60.8002 43.1975L56.7452 43.1975V45.1975L60.8002 45.1975V43.1975ZM64.8552 43.1975H60.8002V45.1975H64.8552V43.1975ZM65.0401 46.0334C65.3296 45.587 65.5819 45.0923 65.7882 44.5572L63.9221 43.8377C63.7637 44.2487 63.5735 44.6192 63.3621 44.9451L65.0401 46.0334ZM63.8292 49.7637C64.0518 50.181 64.3051 50.5656 64.5838 50.9118L66.1418 49.6577C65.9452 49.4135 65.7603 49.1344 65.5939 48.8224L63.8292 49.7637ZM64.5838 50.9118C65.1294 51.5897 65.7538 52.0983 66.4066 52.4343L67.3217 50.6559C66.9379 50.4584 66.5271 50.1365 66.1418 49.6577L64.5838 50.9118ZM66.4066 52.4343C67.0571 52.7691 67.7328 52.9314 68.3998 52.9314V50.9314C68.0635 50.9314 67.7004 50.8508 67.3217 50.6559L66.4066 52.4343ZM68.3998 52.9314C69.0668 52.9314 69.7425 52.7691 70.393 52.4343L69.4779 50.6559C69.0992 50.8508 68.7361 50.9314 68.3998 50.9314V52.9314ZM70.393 52.4343C71.0459 52.0983 71.6702 51.5897 72.2158 50.9118L70.6578 49.6577C70.2725 50.1365 69.8617 50.4584 69.4779 50.6559L70.393 52.4343ZM72.2158 50.9118C72.6872 50.3262 73.0867 49.6301 73.3878 48.849L71.5217 48.1295C71.2901 48.7305 70.991 49.2438 70.6578 49.6577L72.2158 50.9118ZM72.4548 47.4893H68.3998V49.4893H72.4548V47.4893ZM68.3998 47.4893L65.6284 47.4893V49.4893L68.3998 49.4893V47.4893ZM65.3093 50.0947C65.6732 49.8234 66.0187 49.5203 66.3432 49.1887L64.9137 47.7899C64.6594 48.0498 64.3918 48.284 64.1137 48.4914L65.3093 50.0947Z" fill="black" fill-opacity="0.7" mask="url(#path-2-inside-1_552_8)"/>
<path d="M49.8 87.5493C49.8 90.857 47.3172 93.4163 44.4 93.4163C41.4828 93.4163 39 90.857 39 87.5493C39 84.2416 41.4828 81.6824 44.4 81.6824C47.3172 81.6824 49.8 84.2416 49.8 87.5493Z" stroke="black" stroke-opacity="0.7" stroke-width="2"/>
</svg>
