<svg width="94" height="103" viewBox="0 0 94 103" fill="none" xmlns="http://www.w3.org/2000/svg">
<path d="M3.33333 56.9727L17.3333 62.4334L27.3333 64.8225L39 66.529H41M3.33333 56.9727V55.6075L7.66667 52.8771L17.3333 50.8294L27.3333 49.4642L39 48.7816L47.6667 48.4403L58.6615 48.1096M3.33333 56.9727L2 59.3618L3 67.8942L7 79.8396L12.3333 88.0307L20.6667 96.2218L30.6667 100.659L63 101L71.6667 96.2218L81.6667 88.0307L87 79.8396L91 67.8942L92 59.3618M92 59.3618L82.6667 62.4334L67.3333 64.8225L65 65.1139M92 59.3618L91 56.9727L89 54.5836L85.3333 52.8771L77.3333 50.8294L66.3333 48.7816M66.3333 48.7816L71 40.5904L75.6667 35.1297L79.6667 30.0102L85.3333 18.4061V12.2628L84 10.5563H81.3333L77.3333 12.2628L72.6667 18.4061L67.3333 30.0102L65 35.1297L58.6615 48.1096M66.3333 48.7816L63.6667 54.5836L64.6667 57.6553L65 61.4096V65.1139M41 66.529H53.6667L65 65.1139M41 66.529L42 61.4096L44.6667 56.9727L46.6667 54.5836L49 52.8771L53.6667 50.8294L58.3333 48.7816L58.6615 48.1096M22 42.9795L16 36.1536L14.3333 33.4232L13.3333 30.0102V25.9147L15 21.8191L22 13.2867L23 10.5563L22 6.80205L20.6667 1M33.3333 42.9795L27.3333 35.1297L26.3333 31.7167V28.3038L32.3333 21.8191L33.3333 19.7713L34.6667 16.3584L34 13.9693" stroke="black" stroke-opacity="0.7" stroke-width="2"/>
</svg>
