<svg width="93" height="102" viewBox="0 0 93 102" fill="none" xmlns="http://www.w3.org/2000/svg">
<path d="M72.9498 68.0267L34.6052 18.5911L32.7734 16.6894H32.0407L30.5753 18.5911V22.3946L32.7734 30.3185L36.4369 39.0349L39.7341 45.691L44.3745 52.1886L47.9159 55.6751L53.0448 59.7956L57.1967 61.3803H61.3487L63.5468 63.4406L72.9498 79.0997M72.9498 68.0267L90.4125 90.5404L92 95.4532V98.6228L90.4125 101H87.1153L84.673 98.6228L72.9498 79.0997M72.9498 68.0267V37.2916L74.4152 34.2805L75.8806 30.3185L76.6133 26.0396L75.27 20.9683L72.9498 16.6894L68.1872 11.6181L63.5468 8.13154L55.6092 4.32805L48.7707 2.42631L44.3745 1.47544L39.7341 1H36.4369L32.0407 1.47544L26.5455 2.42631L21.4166 4.32805L13.1126 8.13154L9.20488 11.6181L5.17503 16.6894L2.97693 20.9683L2 26.0396L2.97693 30.3185L4.44233 34.2805L5.90773 37.2916V93.8685V95.4532L6.76255 96.8796L8.10583 97.6719L70.3853 96.8796H71.8507L72.9498 95.4532V79.0997M18.73 62.3312L19.7069 77.5452L21.4166 79.0997C30.502 77.8561 32.2849 77.5452 32.0407 77.5452L33.6282 76.5943L32.7734 61.3803L32.0407 59.7956L19.7069 60.7464L18.73 62.3312Z" stroke="black" stroke-opacity="0.7" stroke-width="2"/>
</svg>
